<mxfile host="Electron" agent="Mozilla/5.0 (Windows NT 10.0; Win64; x64) AppleWebKit/537.36 (KHTML, like Gecko) draw.io/25.0.2 Chrome/128.0.6613.186 Electron/32.2.5 Safari/537.36" version="25.0.2">
  <diagram name="Page-1" id="keNG3KPtkoEjAGQ2kljS">
    <mxGraphModel dx="1221" dy="871" grid="1" gridSize="10" guides="1" tooltips="1" connect="1" arrows="1" fold="1" page="1" pageScale="1" pageWidth="4681" pageHeight="3300" math="0" shadow="0">
      <root>
        <mxCell id="0" />
        <mxCell id="1" parent="0" />
        <mxCell id="4kTOv0ZhPjYTlCzsY4zz-62" style="edgeStyle=orthogonalEdgeStyle;orthogonalLoop=1;jettySize=auto;html=1;entryX=0;entryY=0.5;entryDx=0;entryDy=0;dashed=1;flowAnimation=1;" parent="1" source="4kTOv0ZhPjYTlCzsY4zz-1" target="4kTOv0ZhPjYTlCzsY4zz-16" edge="1">
          <mxGeometry relative="1" as="geometry" />
        </mxCell>
        <mxCell id="4kTOv0ZhPjYTlCzsY4zz-124" value="FOR EACH LIGHT" style="edgeStyle=orthogonalEdgeStyle;orthogonalLoop=1;jettySize=auto;html=1;exitX=0.5;exitY=1;exitDx=0;exitDy=0;entryX=0;entryY=0.5;entryDx=0;entryDy=0;flowAnimation=1;dashed=1;dashPattern=1 2;" parent="1" source="4kTOv0ZhPjYTlCzsY4zz-1" target="4kTOv0ZhPjYTlCzsY4zz-156" edge="1">
          <mxGeometry relative="1" as="geometry">
            <mxPoint x="300" y="570" as="targetPoint" />
          </mxGeometry>
        </mxCell>
        <mxCell id="4kTOv0ZhPjYTlCzsY4zz-1" value="scene" style="rounded=0;whiteSpace=wrap;html=1;fontSize=24;" parent="1" vertex="1">
          <mxGeometry x="130" y="368" width="80" height="40" as="geometry" />
        </mxCell>
        <mxCell id="4kTOv0ZhPjYTlCzsY4zz-3" value="color framebuffer" style="swimlane;fontStyle=1;align=center;verticalAlign=middle;childLayout=stackLayout;horizontal=1;startSize=20;horizontalStack=0;resizeParent=1;resizeParentMax=0;resizeLast=0;collapsible=1;marginBottom=0;whiteSpace=wrap;html=1;rounded=1;fontFamily=Courier New;" parent="1" vertex="1">
          <mxGeometry x="760" y="288" width="150" height="80" as="geometry" />
        </mxCell>
        <mxCell id="4kTOv0ZhPjYTlCzsY4zz-6" value="+ color_attachment_0" style="text;strokeColor=none;fillColor=none;align=left;verticalAlign=middle;spacingLeft=2;spacingRight=2;overflow=hidden;rotatable=0;points=[[0,0.5],[1,0.5]];portConstraint=eastwest;whiteSpace=wrap;html=1;rounded=1;fontSize=10;fontFamily=Courier New;spacing=0;" parent="4kTOv0ZhPjYTlCzsY4zz-3" vertex="1">
          <mxGeometry y="20" width="150" height="20" as="geometry" />
        </mxCell>
        <mxCell id="4kTOv0ZhPjYTlCzsY4zz-7" value="+ color_attachment_1" style="text;strokeColor=none;fillColor=none;align=left;verticalAlign=middle;spacingLeft=2;spacingRight=2;overflow=hidden;rotatable=0;points=[[0,0.5],[1,0.5]];portConstraint=eastwest;whiteSpace=wrap;html=1;rounded=1;fontSize=10;fontFamily=Courier New;spacing=0;" parent="4kTOv0ZhPjYTlCzsY4zz-3" vertex="1">
          <mxGeometry y="40" width="150" height="20" as="geometry" />
        </mxCell>
        <mxCell id="4kTOv0ZhPjYTlCzsY4zz-8" value="+ color_attachment_2" style="text;strokeColor=none;fillColor=none;align=left;verticalAlign=middle;spacingLeft=2;spacingRight=2;overflow=hidden;rotatable=0;points=[[0,0.5],[1,0.5]];portConstraint=eastwest;whiteSpace=wrap;html=1;rounded=1;fontSize=10;fontFamily=Courier New;spacing=0;" parent="4kTOv0ZhPjYTlCzsY4zz-3" vertex="1">
          <mxGeometry y="60" width="150" height="20" as="geometry" />
        </mxCell>
        <mxCell id="4kTOv0ZhPjYTlCzsY4zz-21" value="&lt;span style=&quot;font-weight: normal;&quot;&gt;[1] &lt;/span&gt;geometry pipeline" style="swimlane;whiteSpace=wrap;html=1;" parent="1" vertex="1">
          <mxGeometry x="300" y="90" width="380" height="340" as="geometry">
            <mxRectangle x="300" y="230" width="140" height="30" as="alternateBounds" />
          </mxGeometry>
        </mxCell>
        <mxCell id="4kTOv0ZhPjYTlCzsY4zz-15" value="vertex" style="swimlane;fontStyle=1;align=center;verticalAlign=middle;childLayout=stackLayout;horizontal=1;startSize=20;horizontalStack=0;resizeParent=1;resizeParentMax=0;resizeLast=0;collapsible=1;marginBottom=0;whiteSpace=wrap;html=1;rounded=1;fontFamily=Courier New;" parent="4kTOv0ZhPjYTlCzsY4zz-21" vertex="1">
          <mxGeometry y="180" width="170" height="148" as="geometry" />
        </mxCell>
        <mxCell id="4kTOv0ZhPjYTlCzsY4zz-18" value="&amp;lt; f_position: vec3" style="text;strokeColor=none;fillColor=none;align=left;verticalAlign=middle;spacingLeft=2;spacingRight=2;overflow=hidden;rotatable=0;points=[[0,0.5],[1,0.5]];portConstraint=eastwest;whiteSpace=wrap;html=1;rounded=1;fontSize=10;fontFamily=Courier New;spacing=0;" parent="4kTOv0ZhPjYTlCzsY4zz-15" vertex="1">
          <mxGeometry y="20" width="170" height="20" as="geometry" />
        </mxCell>
        <mxCell id="4kTOv0ZhPjYTlCzsY4zz-28" value="&amp;lt; f_normal: vec3" style="text;strokeColor=none;fillColor=none;align=left;verticalAlign=middle;spacingLeft=2;spacingRight=2;overflow=hidden;rotatable=0;points=[[0,0.5],[1,0.5]];portConstraint=eastwest;whiteSpace=wrap;html=1;rounded=1;fontSize=10;fontFamily=Courier New;spacing=0;" parent="4kTOv0ZhPjYTlCzsY4zz-15" vertex="1">
          <mxGeometry y="40" width="170" height="20" as="geometry" />
        </mxCell>
        <mxCell id="4kTOv0ZhPjYTlCzsY4zz-29" value="&amp;lt; f_uv: vec2" style="text;strokeColor=none;fillColor=none;align=left;verticalAlign=middle;spacingLeft=2;spacingRight=2;overflow=hidden;rotatable=0;points=[[0,0.5],[1,0.5]];portConstraint=eastwest;whiteSpace=wrap;html=1;rounded=1;fontSize=10;fontFamily=Courier New;spacing=0;" parent="4kTOv0ZhPjYTlCzsY4zz-15" vertex="1">
          <mxGeometry y="60" width="170" height="20" as="geometry" />
        </mxCell>
        <mxCell id="4kTOv0ZhPjYTlCzsY4zz-17" value="" style="line;strokeWidth=1;fillColor=none;align=left;verticalAlign=middle;spacingTop=-1;spacingLeft=3;spacingRight=3;rotatable=0;labelPosition=right;points=[];portConstraint=eastwest;strokeColor=inherit;rounded=1;" parent="4kTOv0ZhPjYTlCzsY4zz-15" vertex="1">
          <mxGeometry y="80" width="170" height="8" as="geometry" />
        </mxCell>
        <mxCell id="4kTOv0ZhPjYTlCzsY4zz-16" value="&amp;gt; a_position: vec3" style="text;strokeColor=none;fillColor=none;align=left;verticalAlign=middle;spacingLeft=2;spacingRight=2;overflow=hidden;rotatable=0;points=[[0,0.5],[1,0.5]];portConstraint=eastwest;whiteSpace=wrap;html=1;rounded=1;fontSize=10;fontFamily=Courier New;spacing=0;" parent="4kTOv0ZhPjYTlCzsY4zz-15" vertex="1">
          <mxGeometry y="88" width="170" height="20" as="geometry" />
        </mxCell>
        <mxCell id="4kTOv0ZhPjYTlCzsY4zz-19" value="&amp;gt; a_normal: vec3" style="text;strokeColor=none;fillColor=none;align=left;verticalAlign=middle;spacingLeft=2;spacingRight=2;overflow=hidden;rotatable=0;points=[[0,0.5],[1,0.5]];portConstraint=eastwest;whiteSpace=wrap;html=1;rounded=1;fontSize=10;fontFamily=Courier New;spacing=0;" parent="4kTOv0ZhPjYTlCzsY4zz-15" vertex="1">
          <mxGeometry y="108" width="170" height="20" as="geometry" />
        </mxCell>
        <mxCell id="4kTOv0ZhPjYTlCzsY4zz-20" value="&amp;gt; a_uv: vec2" style="text;strokeColor=none;fillColor=none;align=left;verticalAlign=middle;spacingLeft=2;spacingRight=2;overflow=hidden;rotatable=0;points=[[0,0.5],[1,0.5]];portConstraint=eastwest;whiteSpace=wrap;html=1;rounded=1;fontSize=10;fontFamily=Courier New;spacing=0;" parent="4kTOv0ZhPjYTlCzsY4zz-15" vertex="1">
          <mxGeometry y="128" width="170" height="20" as="geometry" />
        </mxCell>
        <mxCell id="4kTOv0ZhPjYTlCzsY4zz-22" value="fragment" style="swimlane;fontStyle=1;align=center;verticalAlign=middle;childLayout=stackLayout;horizontal=1;startSize=20;horizontalStack=0;resizeParent=1;resizeParentMax=0;resizeLast=0;collapsible=1;marginBottom=0;whiteSpace=wrap;html=1;rounded=1;fontFamily=Courier New;" parent="4kTOv0ZhPjYTlCzsY4zz-21" vertex="1">
          <mxGeometry x="210" y="64" width="170" height="196" as="geometry" />
        </mxCell>
        <mxCell id="i2Kr-aUf4tpzizIdWCKi-2" value="# u_diffuse: sampler2D" style="text;strokeColor=none;fillColor=none;align=left;verticalAlign=middle;spacingLeft=2;spacingRight=2;overflow=hidden;rotatable=0;points=[[0,0.5],[1,0.5]];portConstraint=eastwest;whiteSpace=wrap;html=1;rounded=1;fontSize=10;fontFamily=Courier New;spacing=0;" parent="4kTOv0ZhPjYTlCzsY4zz-22" vertex="1">
          <mxGeometry y="20" width="170" height="20" as="geometry" />
        </mxCell>
        <mxCell id="i2Kr-aUf4tpzizIdWCKi-3" value="# u_specular: sampler2D" style="text;strokeColor=none;fillColor=none;align=left;verticalAlign=middle;spacingLeft=2;spacingRight=2;overflow=hidden;rotatable=0;points=[[0,0.5],[1,0.5]];portConstraint=eastwest;whiteSpace=wrap;html=1;rounded=1;fontSize=10;fontFamily=Courier New;spacing=0;" parent="4kTOv0ZhPjYTlCzsY4zz-22" vertex="1">
          <mxGeometry y="40" width="170" height="20" as="geometry" />
        </mxCell>
        <mxCell id="i2Kr-aUf4tpzizIdWCKi-1" value="" style="line;strokeWidth=1;fillColor=none;align=left;verticalAlign=middle;spacingTop=-1;spacingLeft=3;spacingRight=3;rotatable=0;labelPosition=right;points=[];portConstraint=eastwest;strokeColor=inherit;rounded=1;" parent="4kTOv0ZhPjYTlCzsY4zz-22" vertex="1">
          <mxGeometry y="60" width="170" height="8" as="geometry" />
        </mxCell>
        <mxCell id="4kTOv0ZhPjYTlCzsY4zz-27" value="&amp;lt; fbo_position: vec3" style="text;strokeColor=#3A5431;fillColor=#6d8764;align=left;verticalAlign=middle;spacingLeft=2;spacingRight=2;overflow=hidden;rotatable=0;points=[[0,0.5],[1,0.5]];portConstraint=eastwest;whiteSpace=wrap;html=1;rounded=1;fontSize=10;fontFamily=Courier New;spacing=0;fontColor=#ffffff;" parent="4kTOv0ZhPjYTlCzsY4zz-22" vertex="1">
          <mxGeometry y="68" width="170" height="20" as="geometry" />
        </mxCell>
        <mxCell id="4kTOv0ZhPjYTlCzsY4zz-33" value="&amp;lt; fbo_normal: vec3" style="text;strokeColor=#314354;fillColor=#647687;align=left;verticalAlign=middle;spacingLeft=2;spacingRight=2;overflow=hidden;rotatable=0;points=[[0,0.5],[1,0.5]];portConstraint=eastwest;whiteSpace=wrap;html=1;rounded=1;fontSize=10;fontFamily=Courier New;spacing=0;fontColor=#ffffff;" parent="4kTOv0ZhPjYTlCzsY4zz-22" vertex="1">
          <mxGeometry y="88" width="170" height="20" as="geometry" />
        </mxCell>
        <mxCell id="4kTOv0ZhPjYTlCzsY4zz-34" value="&amp;lt; fbo_albedo: vec4" style="text;strokeColor=#432D57;fillColor=#76608a;align=left;verticalAlign=middle;spacingLeft=2;spacingRight=2;overflow=hidden;rotatable=0;points=[[0,0.5],[1,0.5]];portConstraint=eastwest;whiteSpace=wrap;html=1;rounded=1;fontSize=10;fontFamily=Courier New;spacing=0;fontColor=#ffffff;" parent="4kTOv0ZhPjYTlCzsY4zz-22" vertex="1">
          <mxGeometry y="108" width="170" height="20" as="geometry" />
        </mxCell>
        <mxCell id="4kTOv0ZhPjYTlCzsY4zz-26" value="" style="line;strokeWidth=1;fillColor=none;align=left;verticalAlign=middle;spacingTop=-1;spacingLeft=3;spacingRight=3;rotatable=0;labelPosition=right;points=[];portConstraint=eastwest;strokeColor=inherit;rounded=1;" parent="4kTOv0ZhPjYTlCzsY4zz-22" vertex="1">
          <mxGeometry y="128" width="170" height="8" as="geometry" />
        </mxCell>
        <mxCell id="4kTOv0ZhPjYTlCzsY4zz-23" value="&amp;gt; f_position: vec3" style="text;strokeColor=none;fillColor=none;align=left;verticalAlign=middle;spacingLeft=2;spacingRight=2;overflow=hidden;rotatable=0;points=[[0,0.5],[1,0.5]];portConstraint=eastwest;whiteSpace=wrap;html=1;rounded=1;fontSize=10;fontFamily=Courier New;spacing=0;" parent="4kTOv0ZhPjYTlCzsY4zz-22" vertex="1">
          <mxGeometry y="136" width="170" height="20" as="geometry" />
        </mxCell>
        <mxCell id="4kTOv0ZhPjYTlCzsY4zz-24" value="&amp;gt; f_normal: vec3" style="text;strokeColor=none;fillColor=none;align=left;verticalAlign=middle;spacingLeft=2;spacingRight=2;overflow=hidden;rotatable=0;points=[[0,0.5],[1,0.5]];portConstraint=eastwest;whiteSpace=wrap;html=1;rounded=1;fontSize=10;fontFamily=Courier New;spacing=0;" parent="4kTOv0ZhPjYTlCzsY4zz-22" vertex="1">
          <mxGeometry y="156" width="170" height="20" as="geometry" />
        </mxCell>
        <mxCell id="4kTOv0ZhPjYTlCzsY4zz-25" value="&amp;gt; f_uv: vec2" style="text;strokeColor=none;fillColor=none;align=left;verticalAlign=middle;spacingLeft=2;spacingRight=2;overflow=hidden;rotatable=0;points=[[0,0.5],[1,0.5]];portConstraint=eastwest;whiteSpace=wrap;html=1;rounded=1;fontSize=10;fontFamily=Courier New;spacing=0;" parent="4kTOv0ZhPjYTlCzsY4zz-22" vertex="1">
          <mxGeometry y="176" width="170" height="20" as="geometry" />
        </mxCell>
        <mxCell id="4kTOv0ZhPjYTlCzsY4zz-30" style="edgeStyle=orthogonalEdgeStyle;orthogonalLoop=1;jettySize=auto;html=1;" parent="4kTOv0ZhPjYTlCzsY4zz-21" source="4kTOv0ZhPjYTlCzsY4zz-18" target="4kTOv0ZhPjYTlCzsY4zz-23" edge="1">
          <mxGeometry relative="1" as="geometry" />
        </mxCell>
        <mxCell id="4kTOv0ZhPjYTlCzsY4zz-31" style="edgeStyle=orthogonalEdgeStyle;orthogonalLoop=1;jettySize=auto;html=1;entryX=0;entryY=0.5;entryDx=0;entryDy=0;" parent="4kTOv0ZhPjYTlCzsY4zz-21" source="4kTOv0ZhPjYTlCzsY4zz-28" target="4kTOv0ZhPjYTlCzsY4zz-24" edge="1">
          <mxGeometry relative="1" as="geometry" />
        </mxCell>
        <mxCell id="4kTOv0ZhPjYTlCzsY4zz-32" style="edgeStyle=orthogonalEdgeStyle;orthogonalLoop=1;jettySize=auto;html=1;entryX=0;entryY=0.5;entryDx=0;entryDy=0;" parent="4kTOv0ZhPjYTlCzsY4zz-21" source="4kTOv0ZhPjYTlCzsY4zz-29" target="4kTOv0ZhPjYTlCzsY4zz-25" edge="1">
          <mxGeometry relative="1" as="geometry" />
        </mxCell>
        <mxCell id="4kTOv0ZhPjYTlCzsY4zz-35" value="WRITES" style="edgeStyle=entityRelationEdgeStyle;orthogonalLoop=1;jettySize=auto;html=1;exitX=1;exitY=0.5;exitDx=0;exitDy=0;fillColor=#6d8764;strokeColor=#3A5431;verticalAlign=bottom;" parent="1" source="4kTOv0ZhPjYTlCzsY4zz-27" target="4kTOv0ZhPjYTlCzsY4zz-6" edge="1">
          <mxGeometry relative="1" as="geometry" />
        </mxCell>
        <mxCell id="4kTOv0ZhPjYTlCzsY4zz-36" style="edgeStyle=entityRelationEdgeStyle;orthogonalLoop=1;jettySize=auto;html=1;exitX=1;exitY=0.5;exitDx=0;exitDy=0;entryX=0;entryY=0.5;entryDx=0;entryDy=0;fillColor=#647687;strokeColor=#314354;" parent="1" source="4kTOv0ZhPjYTlCzsY4zz-33" target="4kTOv0ZhPjYTlCzsY4zz-7" edge="1">
          <mxGeometry relative="1" as="geometry" />
        </mxCell>
        <mxCell id="4kTOv0ZhPjYTlCzsY4zz-37" style="edgeStyle=entityRelationEdgeStyle;orthogonalLoop=1;jettySize=auto;html=1;exitX=1;exitY=0.5;exitDx=0;exitDy=0;entryX=0;entryY=0.5;entryDx=0;entryDy=0;fillColor=#76608a;strokeColor=#432D57;" parent="1" source="4kTOv0ZhPjYTlCzsY4zz-34" target="4kTOv0ZhPjYTlCzsY4zz-8" edge="1">
          <mxGeometry relative="1" as="geometry" />
        </mxCell>
        <mxCell id="4kTOv0ZhPjYTlCzsY4zz-40" value="textures" style="swimlane;whiteSpace=wrap;html=1;fillColor=none;dashed=1;container=0;rounded=1;fontFamily=Courier New;startSize=20;" parent="1" vertex="1">
          <mxGeometry x="970" y="328" width="165" height="120" as="geometry" />
        </mxCell>
        <mxCell id="4kTOv0ZhPjYTlCzsY4zz-10" value="positions" style="shape=process;whiteSpace=wrap;html=1;backgroundOutline=1;fontFamily=Courier New;fontSize=10;fillColor=#6d8764;fontColor=#ffffff;strokeColor=#3A5431;" parent="4kTOv0ZhPjYTlCzsY4zz-40" vertex="1">
          <mxGeometry x="10" y="30" width="150" height="20" as="geometry" />
        </mxCell>
        <mxCell id="4kTOv0ZhPjYTlCzsY4zz-13" value="normals" style="shape=process;whiteSpace=wrap;html=1;backgroundOutline=1;fontFamily=Courier New;fontSize=10;fillColor=#647687;fontColor=#ffffff;strokeColor=#314354;" parent="4kTOv0ZhPjYTlCzsY4zz-40" vertex="1">
          <mxGeometry x="10" y="60" width="150" height="20" as="geometry" />
        </mxCell>
        <mxCell id="4kTOv0ZhPjYTlCzsY4zz-39" value="albedo" style="shape=process;whiteSpace=wrap;html=1;backgroundOutline=1;fontFamily=Courier New;fontSize=10;fillColor=#76608a;fontColor=#ffffff;strokeColor=#432D57;" parent="4kTOv0ZhPjYTlCzsY4zz-40" vertex="1">
          <mxGeometry x="10" y="90" width="150" height="20" as="geometry" />
        </mxCell>
        <mxCell id="4kTOv0ZhPjYTlCzsY4zz-42" value="&lt;span style=&quot;font-weight: normal;&quot;&gt;[3] &lt;/span&gt;shading pipeline" style="swimlane;whiteSpace=wrap;html=1;" parent="1" vertex="1">
          <mxGeometry x="1230" y="230" width="470" height="340" as="geometry" />
        </mxCell>
        <mxCell id="4kTOv0ZhPjYTlCzsY4zz-43" value="vertex" style="swimlane;fontStyle=1;align=center;verticalAlign=middle;childLayout=stackLayout;horizontal=1;startSize=20;horizontalStack=0;resizeParent=1;resizeParentMax=0;resizeLast=0;collapsible=1;marginBottom=0;whiteSpace=wrap;html=1;rounded=1;fontFamily=Courier New;" parent="4kTOv0ZhPjYTlCzsY4zz-42" vertex="1">
          <mxGeometry y="30" width="170" height="108" as="geometry" />
        </mxCell>
        <mxCell id="4kTOv0ZhPjYTlCzsY4zz-48" value="&amp;gt; a_position: vec3" style="text;strokeColor=none;fillColor=none;align=left;verticalAlign=middle;spacingLeft=2;spacingRight=2;overflow=hidden;rotatable=0;points=[[0,0.5],[1,0.5]];portConstraint=eastwest;whiteSpace=wrap;html=1;rounded=1;fontSize=10;fontFamily=Courier New;spacing=0;" parent="4kTOv0ZhPjYTlCzsY4zz-43" vertex="1">
          <mxGeometry y="20" width="170" height="20" as="geometry" />
        </mxCell>
        <mxCell id="4kTOv0ZhPjYTlCzsY4zz-50" value="&amp;gt; a_uv: vec2" style="text;strokeColor=none;fillColor=none;align=left;verticalAlign=middle;spacingLeft=2;spacingRight=2;overflow=hidden;rotatable=0;points=[[0,0.5],[1,0.5]];portConstraint=eastwest;whiteSpace=wrap;html=1;rounded=1;fontSize=10;fontFamily=Courier New;spacing=0;" parent="4kTOv0ZhPjYTlCzsY4zz-43" vertex="1">
          <mxGeometry y="40" width="170" height="20" as="geometry" />
        </mxCell>
        <mxCell id="4kTOv0ZhPjYTlCzsY4zz-47" value="" style="line;strokeWidth=1;fillColor=none;align=left;verticalAlign=middle;spacingTop=-1;spacingLeft=3;spacingRight=3;rotatable=0;labelPosition=right;points=[];portConstraint=eastwest;strokeColor=inherit;rounded=1;" parent="4kTOv0ZhPjYTlCzsY4zz-43" vertex="1">
          <mxGeometry y="60" width="170" height="8" as="geometry" />
        </mxCell>
        <mxCell id="4kTOv0ZhPjYTlCzsY4zz-44" value="&amp;lt; f_position: vec3" style="text;strokeColor=none;fillColor=none;align=left;verticalAlign=middle;spacingLeft=2;spacingRight=2;overflow=hidden;rotatable=0;points=[[0,0.5],[1,0.5]];portConstraint=eastwest;whiteSpace=wrap;html=1;rounded=1;fontSize=10;fontFamily=Courier New;spacing=0;" parent="4kTOv0ZhPjYTlCzsY4zz-43" vertex="1">
          <mxGeometry y="68" width="170" height="20" as="geometry" />
        </mxCell>
        <mxCell id="4kTOv0ZhPjYTlCzsY4zz-204" value="&amp;lt; f_quad_uv: vec3" style="text;strokeColor=none;fillColor=none;align=left;verticalAlign=middle;spacingLeft=2;spacingRight=2;overflow=hidden;rotatable=0;points=[[0,0.5],[1,0.5]];portConstraint=eastwest;whiteSpace=wrap;html=1;rounded=1;fontSize=10;fontFamily=Courier New;spacing=0;" parent="4kTOv0ZhPjYTlCzsY4zz-43" vertex="1">
          <mxGeometry y="88" width="170" height="20" as="geometry" />
        </mxCell>
        <mxCell id="4kTOv0ZhPjYTlCzsY4zz-51" value="fragment" style="swimlane;fontStyle=1;align=center;verticalAlign=middle;childLayout=stackLayout;horizontal=1;startSize=20;horizontalStack=0;resizeParent=1;resizeParentMax=0;resizeLast=0;collapsible=1;marginBottom=0;whiteSpace=wrap;html=1;rounded=1;fontFamily=Courier New;" parent="4kTOv0ZhPjYTlCzsY4zz-42" vertex="1">
          <mxGeometry x="210" y="88" width="260" height="216" as="geometry" />
        </mxCell>
        <mxCell id="4kTOv0ZhPjYTlCzsY4zz-52" value="&amp;gt; f_position: vec3" style="text;strokeColor=none;fillColor=none;align=left;verticalAlign=middle;spacingLeft=2;spacingRight=2;overflow=hidden;rotatable=0;points=[[0,0.5],[1,0.5]];portConstraint=eastwest;whiteSpace=wrap;html=1;rounded=1;fontSize=10;fontFamily=Courier New;spacing=0;" parent="4kTOv0ZhPjYTlCzsY4zz-51" vertex="1">
          <mxGeometry y="20" width="260" height="20" as="geometry" />
        </mxCell>
        <mxCell id="4kTOv0ZhPjYTlCzsY4zz-54" value="&amp;gt; f_quad_uv: vec2" style="text;strokeColor=none;fillColor=none;align=left;verticalAlign=middle;spacingLeft=2;spacingRight=2;overflow=hidden;rotatable=0;points=[[0,0.5],[1,0.5]];portConstraint=eastwest;whiteSpace=wrap;html=1;rounded=1;fontSize=10;fontFamily=Courier New;spacing=0;" parent="4kTOv0ZhPjYTlCzsY4zz-51" vertex="1">
          <mxGeometry y="40" width="260" height="20" as="geometry" />
        </mxCell>
        <mxCell id="4kTOv0ZhPjYTlCzsY4zz-55" value="" style="line;strokeWidth=1;fillColor=none;align=left;verticalAlign=middle;spacingTop=-1;spacingLeft=3;spacingRight=3;rotatable=0;labelPosition=right;points=[];portConstraint=eastwest;strokeColor=inherit;rounded=1;" parent="4kTOv0ZhPjYTlCzsY4zz-51" vertex="1">
          <mxGeometry y="60" width="260" height="8" as="geometry" />
        </mxCell>
        <mxCell id="4kTOv0ZhPjYTlCzsY4zz-69" value="# u_position: sampler2D" style="text;strokeColor=#3A5431;fillColor=#6d8764;align=left;verticalAlign=middle;spacingLeft=2;spacingRight=2;overflow=hidden;rotatable=0;points=[[0,0.5],[1,0.5]];portConstraint=eastwest;whiteSpace=wrap;html=1;rounded=1;fontSize=10;fontFamily=Courier New;spacing=0;fontColor=#ffffff;" parent="4kTOv0ZhPjYTlCzsY4zz-51" vertex="1">
          <mxGeometry y="68" width="260" height="20" as="geometry" />
        </mxCell>
        <mxCell id="4kTOv0ZhPjYTlCzsY4zz-70" value="# u_normals: sampler2D" style="text;strokeColor=#314354;fillColor=#647687;align=left;verticalAlign=middle;spacingLeft=2;spacingRight=2;overflow=hidden;rotatable=0;points=[[0,0.5],[1,0.5]];portConstraint=eastwest;whiteSpace=wrap;html=1;rounded=1;fontSize=10;fontFamily=Courier New;spacing=0;fontColor=#ffffff;" parent="4kTOv0ZhPjYTlCzsY4zz-51" vertex="1">
          <mxGeometry y="88" width="260" height="20" as="geometry" />
        </mxCell>
        <mxCell id="4kTOv0ZhPjYTlCzsY4zz-68" value="# u_albedo: sampler2D" style="text;strokeColor=#432D57;fillColor=#76608a;align=left;verticalAlign=middle;spacingLeft=2;spacingRight=2;overflow=hidden;rotatable=0;points=[[0,0.5],[1,0.5]];portConstraint=eastwest;whiteSpace=wrap;html=1;rounded=1;fontSize=10;fontFamily=Courier New;spacing=0;fontColor=#ffffff;" parent="4kTOv0ZhPjYTlCzsY4zz-51" vertex="1">
          <mxGeometry y="108" width="260" height="20" as="geometry" />
        </mxCell>
        <mxCell id="4kTOv0ZhPjYTlCzsY4zz-135" value="# u_directional_shadow_map: sampler2D" style="text;strokeColor=#006EAF;fillColor=#1ba1e2;align=left;verticalAlign=middle;spacingLeft=2;spacingRight=2;overflow=hidden;rotatable=0;points=[[0,0.5],[1,0.5]];portConstraint=eastwest;whiteSpace=wrap;html=1;rounded=1;fontSize=10;fontFamily=Courier New;spacing=0;fontColor=#ffffff;" parent="4kTOv0ZhPjYTlCzsY4zz-51" vertex="1">
          <mxGeometry y="128" width="260" height="20" as="geometry" />
        </mxCell>
        <mxCell id="4kTOv0ZhPjYTlCzsY4zz-128" value="# u_spotlight_shadow_map: sampler2DArray" style="text;strokeColor=#6F0000;fillColor=#a20025;align=left;verticalAlign=middle;spacingLeft=2;spacingRight=2;overflow=hidden;rotatable=0;points=[[0,0.5],[1,0.5]];portConstraint=eastwest;whiteSpace=wrap;html=1;rounded=1;fontSize=10;fontFamily=Courier New;spacing=0;fontColor=#ffffff;" parent="4kTOv0ZhPjYTlCzsY4zz-51" vertex="1">
          <mxGeometry y="148" width="260" height="20" as="geometry" />
        </mxCell>
        <mxCell id="4kTOv0ZhPjYTlCzsY4zz-136" value="# u_points_depths: sampler2DArray" style="text;strokeColor=#3700CC;fillColor=#6a00ff;align=left;verticalAlign=middle;spacingLeft=2;spacingRight=2;overflow=hidden;rotatable=0;points=[[0,0.5],[1,0.5]];portConstraint=eastwest;whiteSpace=wrap;html=1;rounded=1;fontSize=10;fontFamily=Courier New;spacing=0;fontColor=#ffffff;" parent="4kTOv0ZhPjYTlCzsY4zz-51" vertex="1">
          <mxGeometry y="168" width="260" height="20" as="geometry" />
        </mxCell>
        <mxCell id="4kTOv0ZhPjYTlCzsY4zz-67" value="" style="line;strokeWidth=1;fillColor=none;align=left;verticalAlign=middle;spacingTop=-1;spacingLeft=3;spacingRight=3;rotatable=0;labelPosition=right;points=[];portConstraint=eastwest;strokeColor=inherit;rounded=1;" parent="4kTOv0ZhPjYTlCzsY4zz-51" vertex="1">
          <mxGeometry y="188" width="260" height="8" as="geometry" />
        </mxCell>
        <mxCell id="4kTOv0ZhPjYTlCzsY4zz-56" value="&amp;lt; out_color: vec4" style="text;strokeColor=#BD7000;fillColor=#f0a30a;align=left;verticalAlign=middle;spacingLeft=2;spacingRight=2;overflow=hidden;rotatable=0;points=[[0,0.5],[1,0.5]];portConstraint=eastwest;whiteSpace=wrap;html=1;rounded=1;fontSize=10;fontFamily=Courier New;spacing=0;fontColor=#000000;" parent="4kTOv0ZhPjYTlCzsY4zz-51" vertex="1">
          <mxGeometry y="196" width="260" height="20" as="geometry" />
        </mxCell>
        <mxCell id="4kTOv0ZhPjYTlCzsY4zz-65" style="edgeStyle=orthogonalEdgeStyle;orthogonalLoop=1;jettySize=auto;html=1;exitX=1;exitY=0.5;exitDx=0;exitDy=0;entryX=0;entryY=0.5;entryDx=0;entryDy=0;" parent="4kTOv0ZhPjYTlCzsY4zz-42" source="4kTOv0ZhPjYTlCzsY4zz-44" target="4kTOv0ZhPjYTlCzsY4zz-52" edge="1">
          <mxGeometry relative="1" as="geometry" />
        </mxCell>
        <mxCell id="4kTOv0ZhPjYTlCzsY4zz-66" style="edgeStyle=orthogonalEdgeStyle;orthogonalLoop=1;jettySize=auto;html=1;exitX=1;exitY=0.5;exitDx=0;exitDy=0;entryX=0;entryY=0.5;entryDx=0;entryDy=0;" parent="4kTOv0ZhPjYTlCzsY4zz-42" source="4kTOv0ZhPjYTlCzsY4zz-204" target="4kTOv0ZhPjYTlCzsY4zz-54" edge="1">
          <mxGeometry relative="1" as="geometry" />
        </mxCell>
        <mxCell id="4kTOv0ZhPjYTlCzsY4zz-71" style="edgeStyle=entityRelationEdgeStyle;orthogonalLoop=1;jettySize=auto;html=1;exitX=1;exitY=0.5;exitDx=0;exitDy=0;entryX=0;entryY=0.5;entryDx=0;entryDy=0;fillColor=#6d8764;strokeColor=#3A5431;" parent="1" source="4kTOv0ZhPjYTlCzsY4zz-10" target="4kTOv0ZhPjYTlCzsY4zz-69" edge="1">
          <mxGeometry relative="1" as="geometry" />
        </mxCell>
        <mxCell id="4kTOv0ZhPjYTlCzsY4zz-72" style="edgeStyle=entityRelationEdgeStyle;orthogonalLoop=1;jettySize=auto;html=1;exitX=1;exitY=0.5;exitDx=0;exitDy=0;entryX=0;entryY=0.5;entryDx=0;entryDy=0;fillColor=#647687;strokeColor=#314354;" parent="1" source="4kTOv0ZhPjYTlCzsY4zz-13" target="4kTOv0ZhPjYTlCzsY4zz-70" edge="1">
          <mxGeometry relative="1" as="geometry" />
        </mxCell>
        <mxCell id="4kTOv0ZhPjYTlCzsY4zz-73" style="edgeStyle=entityRelationEdgeStyle;orthogonalLoop=1;jettySize=auto;html=1;exitX=1;exitY=0.5;exitDx=0;exitDy=0;entryX=0;entryY=0.5;entryDx=0;entryDy=0;fillColor=#76608a;strokeColor=#432D57;" parent="1" source="4kTOv0ZhPjYTlCzsY4zz-39" target="4kTOv0ZhPjYTlCzsY4zz-68" edge="1">
          <mxGeometry relative="1" as="geometry" />
        </mxCell>
        <mxCell id="4kTOv0ZhPjYTlCzsY4zz-160" style="edgeStyle=entityRelationEdgeStyle;orthogonalLoop=1;jettySize=auto;html=1;exitX=1;exitY=0.25;exitDx=0;exitDy=0;entryX=0;entryY=0.5;entryDx=0;entryDy=0;fillColor=#1ba1e2;strokeColor=#006EAF;" parent="1" source="4kTOv0ZhPjYTlCzsY4zz-97" target="4kTOv0ZhPjYTlCzsY4zz-150" edge="1">
          <mxGeometry relative="1" as="geometry" />
        </mxCell>
        <mxCell id="4kTOv0ZhPjYTlCzsY4zz-161" style="edgeStyle=entityRelationEdgeStyle;orthogonalLoop=1;jettySize=auto;html=1;exitX=1;exitY=0.5;exitDx=0;exitDy=0;entryX=0;entryY=0.5;entryDx=0;entryDy=0;fillColor=#a20025;strokeColor=#6F0000;" parent="1" source="4kTOv0ZhPjYTlCzsY4zz-97" target="4kTOv0ZhPjYTlCzsY4zz-144" edge="1">
          <mxGeometry relative="1" as="geometry" />
        </mxCell>
        <mxCell id="4kTOv0ZhPjYTlCzsY4zz-162" style="edgeStyle=entityRelationEdgeStyle;orthogonalLoop=1;jettySize=auto;html=1;exitX=1;exitY=0.75;exitDx=0;exitDy=0;entryX=0;entryY=0.5;entryDx=0;entryDy=0;fillColor=#6a00ff;strokeColor=#3700CC;" parent="1" source="4kTOv0ZhPjYTlCzsY4zz-97" target="4kTOv0ZhPjYTlCzsY4zz-144" edge="1">
          <mxGeometry relative="1" as="geometry" />
        </mxCell>
        <mxCell id="4kTOv0ZhPjYTlCzsY4zz-97" value="&lt;span style=&quot;font-weight: normal;&quot;&gt;[2] &lt;/span&gt;depth pipeline" style="swimlane;whiteSpace=wrap;html=1;" parent="1" vertex="1">
          <mxGeometry x="300" y="480" width="380" height="120" as="geometry">
            <mxRectangle x="300" y="480" width="120" height="30" as="alternateBounds" />
          </mxGeometry>
        </mxCell>
        <mxCell id="4kTOv0ZhPjYTlCzsY4zz-98" value="vertex" style="swimlane;fontStyle=1;align=center;verticalAlign=middle;childLayout=stackLayout;horizontal=1;startSize=20;horizontalStack=0;resizeParent=1;resizeParentMax=0;resizeLast=0;collapsible=1;marginBottom=0;whiteSpace=wrap;html=1;rounded=1;fontFamily=Courier New;" parent="4kTOv0ZhPjYTlCzsY4zz-97" vertex="1">
          <mxGeometry y="40" width="170" height="68" as="geometry" />
        </mxCell>
        <mxCell id="4kTOv0ZhPjYTlCzsY4zz-156" value="&amp;gt; a_position: vec3" style="text;strokeColor=none;fillColor=none;align=left;verticalAlign=middle;spacingLeft=2;spacingRight=2;overflow=hidden;rotatable=0;points=[[0,0.5],[1,0.5]];portConstraint=eastwest;whiteSpace=wrap;html=1;rounded=1;fontSize=10;fontFamily=Courier New;spacing=0;" parent="4kTOv0ZhPjYTlCzsY4zz-98" vertex="1">
          <mxGeometry y="20" width="170" height="20" as="geometry" />
        </mxCell>
        <mxCell id="4kTOv0ZhPjYTlCzsY4zz-102" value="" style="line;strokeWidth=1;fillColor=none;align=left;verticalAlign=middle;spacingTop=-1;spacingLeft=3;spacingRight=3;rotatable=0;labelPosition=right;points=[];portConstraint=eastwest;strokeColor=inherit;rounded=1;" parent="4kTOv0ZhPjYTlCzsY4zz-98" vertex="1">
          <mxGeometry y="40" width="170" height="8" as="geometry" />
        </mxCell>
        <mxCell id="4kTOv0ZhPjYTlCzsY4zz-103" value="# u_mvp: mat4" style="text;strokeColor=none;fillColor=none;align=left;verticalAlign=middle;spacingLeft=2;spacingRight=2;overflow=hidden;rotatable=0;points=[[0,0.5],[1,0.5]];portConstraint=eastwest;whiteSpace=wrap;html=1;rounded=1;fontSize=10;fontFamily=Courier New;spacing=0;" parent="4kTOv0ZhPjYTlCzsY4zz-98" vertex="1">
          <mxGeometry y="48" width="170" height="20" as="geometry" />
        </mxCell>
        <mxCell id="4kTOv0ZhPjYTlCzsY4zz-166" value="fragment" style="swimlane;fontStyle=1;align=center;verticalAlign=middle;childLayout=stackLayout;horizontal=1;startSize=20;horizontalStack=0;resizeParent=1;resizeParentMax=0;resizeLast=0;collapsible=1;marginBottom=0;whiteSpace=wrap;html=1;rounded=1;fontFamily=Courier New;" parent="4kTOv0ZhPjYTlCzsY4zz-97" vertex="1">
          <mxGeometry x="210" y="40" width="170" height="28" as="geometry" />
        </mxCell>
        <mxCell id="4kTOv0ZhPjYTlCzsY4zz-117" value="lights" style="swimlane;whiteSpace=wrap;html=1;fillColor=none;dashed=1;container=0;rounded=1;fontFamily=Courier New;startSize=20;" parent="1" vertex="1">
          <mxGeometry x="80" y="560" width="140" height="120" as="geometry" />
        </mxCell>
        <mxCell id="4kTOv0ZhPjYTlCzsY4zz-118" value="directional" style="shape=process;whiteSpace=wrap;html=1;backgroundOutline=1;fontFamily=Courier New;fontSize=10;fillColor=#1ba1e2;strokeColor=#006EAF;fontColor=#ffffff;" parent="4kTOv0ZhPjYTlCzsY4zz-117" vertex="1">
          <mxGeometry x="10" y="30" width="120" height="20" as="geometry" />
        </mxCell>
        <mxCell id="4kTOv0ZhPjYTlCzsY4zz-119" value="spotlights[]" style="shape=process;whiteSpace=wrap;html=1;backgroundOutline=1;fontFamily=Courier New;fontSize=10;fillColor=#a20025;fontColor=#ffffff;strokeColor=#6F0000;" parent="4kTOv0ZhPjYTlCzsY4zz-117" vertex="1">
          <mxGeometry x="10" y="60" width="120" height="20" as="geometry" />
        </mxCell>
        <mxCell id="4kTOv0ZhPjYTlCzsY4zz-120" value="points[]" style="shape=process;whiteSpace=wrap;html=1;backgroundOutline=1;fontFamily=Courier New;fontSize=10;fillColor=#6a00ff;fontColor=#ffffff;strokeColor=#3700CC;fontStyle=3" parent="4kTOv0ZhPjYTlCzsY4zz-117" vertex="1">
          <mxGeometry x="10" y="90" width="120" height="20" as="geometry" />
        </mxCell>
        <mxCell id="4kTOv0ZhPjYTlCzsY4zz-129" style="edgeStyle=entityRelationEdgeStyle;orthogonalLoop=1;jettySize=auto;html=1;exitX=1;exitY=0.5;exitDx=0;exitDy=0;entryX=0;entryY=0.5;entryDx=0;entryDy=0;fillColor=#a20025;strokeColor=#6F0000;" parent="1" source="4kTOv0ZhPjYTlCzsY4zz-125" target="4kTOv0ZhPjYTlCzsY4zz-128" edge="1">
          <mxGeometry relative="1" as="geometry" />
        </mxCell>
        <mxCell id="4kTOv0ZhPjYTlCzsY4zz-137" style="edgeStyle=entityRelationEdgeStyle;orthogonalLoop=1;jettySize=auto;html=1;exitX=1;exitY=0.5;exitDx=0;exitDy=0;entryX=0;entryY=0.5;entryDx=0;entryDy=0;fillColor=#6a00ff;strokeColor=#3700CC;" parent="1" source="4kTOv0ZhPjYTlCzsY4zz-126" target="4kTOv0ZhPjYTlCzsY4zz-136" edge="1">
          <mxGeometry relative="1" as="geometry" />
        </mxCell>
        <mxCell id="4kTOv0ZhPjYTlCzsY4zz-138" style="edgeStyle=entityRelationEdgeStyle;orthogonalLoop=1;jettySize=auto;html=1;exitX=1;exitY=0.5;exitDx=0;exitDy=0;entryX=0;entryY=0.5;entryDx=0;entryDy=0;fillColor=#1ba1e2;strokeColor=#006EAF;" parent="1" source="4kTOv0ZhPjYTlCzsY4zz-134" target="4kTOv0ZhPjYTlCzsY4zz-135" edge="1">
          <mxGeometry relative="1" as="geometry" />
        </mxCell>
        <mxCell id="4kTOv0ZhPjYTlCzsY4zz-139" value="textures" style="swimlane;whiteSpace=wrap;html=1;fillColor=none;dashed=1;container=0;rounded=1;fontFamily=Courier New;startSize=20;" parent="1" vertex="1">
          <mxGeometry x="970" y="470" width="165" height="120" as="geometry" />
        </mxCell>
        <mxCell id="4kTOv0ZhPjYTlCzsY4zz-134" value="directional" style="shape=process;whiteSpace=wrap;html=1;backgroundOutline=1;fontFamily=Courier New;fontSize=10;fillColor=#1ba1e2;strokeColor=#006EAF;fontColor=#ffffff;" parent="4kTOv0ZhPjYTlCzsY4zz-139" vertex="1">
          <mxGeometry x="7.5" y="30" width="150" height="20" as="geometry" />
        </mxCell>
        <mxCell id="4kTOv0ZhPjYTlCzsY4zz-125" value="spotlight_depths[]" style="shape=process;whiteSpace=wrap;html=1;backgroundOutline=1;fontFamily=Courier New;fontSize=10;fillColor=#a20025;fontColor=#ffffff;strokeColor=#6F0000;size=0.06451612903225806;" parent="4kTOv0ZhPjYTlCzsY4zz-139" vertex="1">
          <mxGeometry x="7.5" y="60" width="150" height="20" as="geometry" />
        </mxCell>
        <mxCell id="4kTOv0ZhPjYTlCzsY4zz-126" value="points_depths[]" style="shape=process;whiteSpace=wrap;html=1;backgroundOutline=1;fontFamily=Courier New;fontSize=10;fillColor=#6a00ff;fontColor=#ffffff;strokeColor=#3700CC;size=0.06451612903225806;fontStyle=3" parent="4kTOv0ZhPjYTlCzsY4zz-139" vertex="1">
          <mxGeometry x="7.5" y="90" width="150" height="20" as="geometry" />
        </mxCell>
        <mxCell id="4kTOv0ZhPjYTlCzsY4zz-143" value="framebuffer" style="swimlane;fontStyle=1;align=center;verticalAlign=middle;childLayout=stackLayout;horizontal=1;startSize=20;horizontalStack=0;resizeParent=1;resizeParentMax=0;resizeLast=0;collapsible=1;marginBottom=0;whiteSpace=wrap;html=1;rounded=1;fontFamily=Courier New;" parent="1" vertex="1">
          <mxGeometry x="760" y="530" width="150" height="40" as="geometry" />
        </mxCell>
        <mxCell id="4kTOv0ZhPjYTlCzsY4zz-144" value="+ depth_component" style="text;strokeColor=none;fillColor=none;align=left;verticalAlign=middle;spacingLeft=2;spacingRight=2;overflow=hidden;rotatable=0;points=[[0,0.5],[1,0.5]];portConstraint=eastwest;whiteSpace=wrap;html=1;rounded=1;fontSize=10;fontFamily=Courier New;spacing=0;" parent="4kTOv0ZhPjYTlCzsY4zz-143" vertex="1">
          <mxGeometry y="20" width="150" height="20" as="geometry" />
        </mxCell>
        <mxCell id="4kTOv0ZhPjYTlCzsY4zz-149" value="dir framebuffer" style="swimlane;fontStyle=1;align=center;verticalAlign=middle;childLayout=stackLayout;horizontal=1;startSize=20;horizontalStack=0;resizeParent=1;resizeParentMax=0;resizeLast=0;collapsible=1;marginBottom=0;whiteSpace=wrap;html=1;rounded=1;fontFamily=Courier New;" parent="1" vertex="1">
          <mxGeometry x="760" y="480" width="150" height="40" as="geometry" />
        </mxCell>
        <mxCell id="4kTOv0ZhPjYTlCzsY4zz-150" value="+ depth_component" style="text;strokeColor=none;fillColor=none;align=left;verticalAlign=middle;spacingLeft=2;spacingRight=2;overflow=hidden;rotatable=0;points=[[0,0.5],[1,0.5]];portConstraint=eastwest;whiteSpace=wrap;html=1;rounded=1;fontSize=10;fontFamily=Courier New;spacing=0;" parent="4kTOv0ZhPjYTlCzsY4zz-149" vertex="1">
          <mxGeometry y="20" width="150" height="20" as="geometry" />
        </mxCell>
        <mxCell id="4kTOv0ZhPjYTlCzsY4zz-151" style="edgeStyle=entityRelationEdgeStyle;orthogonalLoop=1;jettySize=auto;html=1;exitX=0;exitY=0.5;exitDx=0;exitDy=0;entryX=1;entryY=0.5;entryDx=0;entryDy=0;startArrow=classic;startFill=1;fillColor=#6d8764;strokeColor=#3A5431;dashed=1;" parent="1" source="4kTOv0ZhPjYTlCzsY4zz-10" target="4kTOv0ZhPjYTlCzsY4zz-6" edge="1">
          <mxGeometry relative="1" as="geometry" />
        </mxCell>
        <mxCell id="4kTOv0ZhPjYTlCzsY4zz-152" style="edgeStyle=entityRelationEdgeStyle;orthogonalLoop=1;jettySize=auto;html=1;exitX=0;exitY=0.5;exitDx=0;exitDy=0;entryX=1;entryY=0.5;entryDx=0;entryDy=0;startArrow=classic;startFill=1;fillColor=#647687;strokeColor=#314354;dashed=1;" parent="1" source="4kTOv0ZhPjYTlCzsY4zz-13" target="4kTOv0ZhPjYTlCzsY4zz-7" edge="1">
          <mxGeometry relative="1" as="geometry">
            <mxPoint x="990" y="368" as="sourcePoint" />
            <mxPoint x="920" y="378" as="targetPoint" />
          </mxGeometry>
        </mxCell>
        <mxCell id="4kTOv0ZhPjYTlCzsY4zz-153" style="edgeStyle=entityRelationEdgeStyle;orthogonalLoop=1;jettySize=auto;html=1;exitX=0;exitY=0.5;exitDx=0;exitDy=0;entryX=1;entryY=0.5;entryDx=0;entryDy=0;startArrow=classic;startFill=1;fillColor=#76608a;strokeColor=#432D57;dashed=1;" parent="1" source="4kTOv0ZhPjYTlCzsY4zz-39" target="4kTOv0ZhPjYTlCzsY4zz-8" edge="1">
          <mxGeometry relative="1" as="geometry">
            <mxPoint x="990" y="398" as="sourcePoint" />
            <mxPoint x="920" y="398" as="targetPoint" />
          </mxGeometry>
        </mxCell>
        <mxCell id="4kTOv0ZhPjYTlCzsY4zz-154" style="edgeStyle=orthogonalEdgeStyle;orthogonalLoop=1;jettySize=auto;html=1;entryX=0;entryY=0.5;entryDx=0;entryDy=0;dashed=1;flowAnimation=1;" parent="1" source="4kTOv0ZhPjYTlCzsY4zz-1" target="4kTOv0ZhPjYTlCzsY4zz-19" edge="1">
          <mxGeometry relative="1" as="geometry">
            <mxPoint x="160" y="410" as="sourcePoint" />
            <mxPoint x="310" y="378" as="targetPoint" />
          </mxGeometry>
        </mxCell>
        <mxCell id="4kTOv0ZhPjYTlCzsY4zz-155" style="edgeStyle=orthogonalEdgeStyle;orthogonalLoop=1;jettySize=auto;html=1;entryX=0;entryY=0.5;entryDx=0;entryDy=0;dashed=1;flowAnimation=1;" parent="1" source="4kTOv0ZhPjYTlCzsY4zz-1" target="4kTOv0ZhPjYTlCzsY4zz-20" edge="1">
          <mxGeometry relative="1" as="geometry">
            <mxPoint x="170" y="420" as="sourcePoint" />
            <mxPoint x="310" y="398" as="targetPoint" />
          </mxGeometry>
        </mxCell>
        <mxCell id="4kTOv0ZhPjYTlCzsY4zz-157" style="edgeStyle=orthogonalEdgeStyle;orthogonalLoop=1;jettySize=auto;html=1;exitX=1;exitY=0.5;exitDx=0;exitDy=0;entryX=0;entryY=0.5;entryDx=0;entryDy=0;dashed=1;dashPattern=8 8;flowAnimation=1;fillColor=#1ba1e2;strokeColor=#006EAF;" parent="1" source="4kTOv0ZhPjYTlCzsY4zz-118" target="4kTOv0ZhPjYTlCzsY4zz-103" edge="1">
          <mxGeometry relative="1" as="geometry" />
        </mxCell>
        <mxCell id="4kTOv0ZhPjYTlCzsY4zz-158" style="edgeStyle=orthogonalEdgeStyle;orthogonalLoop=1;jettySize=auto;html=1;exitX=1;exitY=0.5;exitDx=0;exitDy=0;entryX=0;entryY=0.5;entryDx=0;entryDy=0;dashed=1;dashPattern=1 1;flowAnimation=1;fillColor=#a20025;strokeColor=#6F0000;" parent="1" source="4kTOv0ZhPjYTlCzsY4zz-119" target="4kTOv0ZhPjYTlCzsY4zz-103" edge="1">
          <mxGeometry relative="1" as="geometry" />
        </mxCell>
        <mxCell id="4kTOv0ZhPjYTlCzsY4zz-159" style="edgeStyle=orthogonalEdgeStyle;orthogonalLoop=1;jettySize=auto;html=1;exitX=1;exitY=0.5;exitDx=0;exitDy=0;entryX=0;entryY=0.5;entryDx=0;entryDy=0;dashed=1;dashPattern=1 1;flowAnimation=1;fillColor=#6a00ff;strokeColor=#3700CC;" parent="1" source="4kTOv0ZhPjYTlCzsY4zz-120" target="4kTOv0ZhPjYTlCzsY4zz-103" edge="1">
          <mxGeometry relative="1" as="geometry" />
        </mxCell>
        <mxCell id="4kTOv0ZhPjYTlCzsY4zz-163" style="edgeStyle=entityRelationEdgeStyle;orthogonalLoop=1;jettySize=auto;html=1;exitX=1;exitY=0.5;exitDx=0;exitDy=0;entryX=0;entryY=0.5;entryDx=0;entryDy=0;fillColor=#1ba1e2;strokeColor=#006EAF;dashed=1;startArrow=classic;startFill=1;" parent="1" source="4kTOv0ZhPjYTlCzsY4zz-150" target="4kTOv0ZhPjYTlCzsY4zz-134" edge="1">
          <mxGeometry relative="1" as="geometry" />
        </mxCell>
        <mxCell id="4kTOv0ZhPjYTlCzsY4zz-164" style="edgeStyle=entityRelationEdgeStyle;orthogonalLoop=1;jettySize=auto;html=1;exitX=1;exitY=0.5;exitDx=0;exitDy=0;entryX=0;entryY=0.5;entryDx=0;entryDy=0;fillColor=#a20025;strokeColor=#6F0000;startArrow=classic;startFill=1;dashed=1;" parent="1" source="4kTOv0ZhPjYTlCzsY4zz-144" target="4kTOv0ZhPjYTlCzsY4zz-125" edge="1">
          <mxGeometry relative="1" as="geometry" />
        </mxCell>
        <mxCell id="4kTOv0ZhPjYTlCzsY4zz-165" style="edgeStyle=entityRelationEdgeStyle;orthogonalLoop=1;jettySize=auto;html=1;exitX=1;exitY=0.5;exitDx=0;exitDy=0;entryX=0;entryY=0.5;entryDx=0;entryDy=0;fillColor=#6a00ff;strokeColor=#3700CC;startArrow=classic;startFill=1;dashed=1;" parent="1" source="4kTOv0ZhPjYTlCzsY4zz-144" target="4kTOv0ZhPjYTlCzsY4zz-126" edge="1">
          <mxGeometry relative="1" as="geometry" />
        </mxCell>
        <mxCell id="4kTOv0ZhPjYTlCzsY4zz-170" value="lights sets their MVP matrices to render the scene from their perspecitve&amp;nbsp;" style="shape=note;size=6;whiteSpace=wrap;html=1;strokeColor=#67AB9F;fontColor=#67AB9F;" parent="1" vertex="1">
          <mxGeometry x="300" y="620" width="180" height="60" as="geometry" />
        </mxCell>
        <mxCell id="4kTOv0ZhPjYTlCzsY4zz-171" value="point lights should be render 6 time for each point :dead:" style="shape=note;size=12;whiteSpace=wrap;html=1;strokeColor=#67AB9F;fontColor=#67AB9F;" parent="1" vertex="1">
          <mxGeometry x="490" y="620" width="190" height="60" as="geometry" />
        </mxCell>
        <mxCell id="4kTOv0ZhPjYTlCzsY4zz-173" value="textures" style="swimlane;whiteSpace=wrap;html=1;fillColor=none;dashed=1;container=0;rounded=1;fontFamily=Courier New;startSize=20;" parent="1" vertex="1">
          <mxGeometry x="970" y="610" width="165" height="60" as="geometry" />
        </mxCell>
        <mxCell id="4kTOv0ZhPjYTlCzsY4zz-174" value="color" style="shape=process;whiteSpace=wrap;html=1;backgroundOutline=1;fontFamily=Courier New;fontSize=10;fillColor=#f0a30a;strokeColor=#BD7000;fontColor=#000000;" parent="4kTOv0ZhPjYTlCzsY4zz-173" vertex="1">
          <mxGeometry x="7.5" y="30" width="150" height="20" as="geometry" />
        </mxCell>
        <mxCell id="4kTOv0ZhPjYTlCzsY4zz-178" value="out framebuffer" style="swimlane;fontStyle=1;align=center;verticalAlign=middle;childLayout=stackLayout;horizontal=1;startSize=20;horizontalStack=0;resizeParent=1;resizeParentMax=0;resizeLast=0;collapsible=1;marginBottom=0;whiteSpace=wrap;html=1;rounded=1;fontFamily=Courier New;" parent="1" vertex="1">
          <mxGeometry x="1190" y="620" width="150" height="40" as="geometry" />
        </mxCell>
        <mxCell id="4kTOv0ZhPjYTlCzsY4zz-179" value="+ color_attachment_0" style="text;strokeColor=none;fillColor=none;align=left;verticalAlign=middle;spacingLeft=2;spacingRight=2;overflow=hidden;rotatable=0;points=[[0,0.5],[1,0.5]];portConstraint=eastwest;whiteSpace=wrap;html=1;rounded=1;fontSize=10;fontFamily=Courier New;spacing=0;" parent="4kTOv0ZhPjYTlCzsY4zz-178" vertex="1">
          <mxGeometry y="20" width="150" height="20" as="geometry" />
        </mxCell>
        <mxCell id="4kTOv0ZhPjYTlCzsY4zz-180" style="edgeStyle=orthogonalEdgeStyle;orthogonalLoop=1;jettySize=auto;html=1;exitX=1;exitY=0.5;exitDx=0;exitDy=0;entryX=0;entryY=0.5;entryDx=0;entryDy=0;fillColor=#f0a30a;strokeColor=#BD7000;startArrow=classic;startFill=1;dashed=1;" parent="1" source="4kTOv0ZhPjYTlCzsY4zz-174" target="4kTOv0ZhPjYTlCzsY4zz-179" edge="1">
          <mxGeometry relative="1" as="geometry" />
        </mxCell>
        <mxCell id="4kTOv0ZhPjYTlCzsY4zz-181" style="edgeStyle=entityRelationEdgeStyle;orthogonalLoop=1;jettySize=auto;html=1;exitX=0;exitY=0.5;exitDx=0;exitDy=0;entryX=1;entryY=0.5;entryDx=0;entryDy=0;fillColor=#f0a30a;strokeColor=#BD7000;" parent="1" source="4kTOv0ZhPjYTlCzsY4zz-56" target="4kTOv0ZhPjYTlCzsY4zz-179" edge="1">
          <mxGeometry relative="1" as="geometry" />
        </mxCell>
        <mxCell id="4kTOv0ZhPjYTlCzsY4zz-182" value="&lt;span style=&quot;font-weight: 400;&quot;&gt;[4] bloom&lt;/span&gt;" style="swimlane;whiteSpace=wrap;html=1;" parent="1" vertex="1">
          <mxGeometry x="940" y="700" width="410" height="150" as="geometry" />
        </mxCell>
        <mxCell id="4kTOv0ZhPjYTlCzsY4zz-205" value="vertex" style="swimlane;fontStyle=1;align=center;verticalAlign=middle;childLayout=stackLayout;horizontal=1;startSize=20;horizontalStack=0;resizeParent=1;resizeParentMax=0;resizeLast=0;collapsible=1;marginBottom=0;whiteSpace=wrap;html=1;rounded=1;fontFamily=Courier New;" parent="4kTOv0ZhPjYTlCzsY4zz-182" vertex="1">
          <mxGeometry y="40" width="170" height="88" as="geometry" />
        </mxCell>
        <mxCell id="4kTOv0ZhPjYTlCzsY4zz-206" value="&amp;gt; a_position: vec3" style="text;strokeColor=none;fillColor=none;align=left;verticalAlign=middle;spacingLeft=2;spacingRight=2;overflow=hidden;rotatable=0;points=[[0,0.5],[1,0.5]];portConstraint=eastwest;whiteSpace=wrap;html=1;rounded=1;fontSize=10;fontFamily=Courier New;spacing=0;" parent="4kTOv0ZhPjYTlCzsY4zz-205" vertex="1">
          <mxGeometry y="20" width="170" height="20" as="geometry" />
        </mxCell>
        <mxCell id="4kTOv0ZhPjYTlCzsY4zz-207" value="&amp;gt; a_uv: vec2" style="text;strokeColor=none;fillColor=none;align=left;verticalAlign=middle;spacingLeft=2;spacingRight=2;overflow=hidden;rotatable=0;points=[[0,0.5],[1,0.5]];portConstraint=eastwest;whiteSpace=wrap;html=1;rounded=1;fontSize=10;fontFamily=Courier New;spacing=0;" parent="4kTOv0ZhPjYTlCzsY4zz-205" vertex="1">
          <mxGeometry y="40" width="170" height="20" as="geometry" />
        </mxCell>
        <mxCell id="4kTOv0ZhPjYTlCzsY4zz-208" value="" style="line;strokeWidth=1;fillColor=none;align=left;verticalAlign=middle;spacingTop=-1;spacingLeft=3;spacingRight=3;rotatable=0;labelPosition=right;points=[];portConstraint=eastwest;strokeColor=inherit;rounded=1;" parent="4kTOv0ZhPjYTlCzsY4zz-205" vertex="1">
          <mxGeometry y="60" width="170" height="8" as="geometry" />
        </mxCell>
        <mxCell id="4kTOv0ZhPjYTlCzsY4zz-210" value="&amp;lt; f_quad_uv: vec3" style="text;strokeColor=none;fillColor=none;align=left;verticalAlign=middle;spacingLeft=2;spacingRight=2;overflow=hidden;rotatable=0;points=[[0,0.5],[1,0.5]];portConstraint=eastwest;whiteSpace=wrap;html=1;rounded=1;fontSize=10;fontFamily=Courier New;spacing=0;" parent="4kTOv0ZhPjYTlCzsY4zz-205" vertex="1">
          <mxGeometry y="68" width="170" height="20" as="geometry" />
        </mxCell>
        <mxCell id="4kTOv0ZhPjYTlCzsY4zz-216" value="fragment" style="swimlane;fontStyle=1;align=center;verticalAlign=middle;childLayout=stackLayout;horizontal=1;startSize=20;horizontalStack=0;resizeParent=1;resizeParentMax=0;resizeLast=0;collapsible=1;marginBottom=0;whiteSpace=wrap;html=1;rounded=1;fontFamily=Courier New;" parent="4kTOv0ZhPjYTlCzsY4zz-182" vertex="1">
          <mxGeometry x="240" y="41" width="170" height="88" as="geometry" />
        </mxCell>
        <mxCell id="4kTOv0ZhPjYTlCzsY4zz-220" value="&amp;gt; f_quad_uv: vec3" style="text;strokeColor=none;fillColor=none;align=left;verticalAlign=middle;spacingLeft=2;spacingRight=2;overflow=hidden;rotatable=0;points=[[0,0.5],[1,0.5]];portConstraint=eastwest;whiteSpace=wrap;html=1;rounded=1;fontSize=10;fontFamily=Courier New;spacing=0;" parent="4kTOv0ZhPjYTlCzsY4zz-216" vertex="1">
          <mxGeometry y="20" width="170" height="20" as="geometry" />
        </mxCell>
        <mxCell id="4kTOv0ZhPjYTlCzsY4zz-219" value="" style="line;strokeWidth=1;fillColor=none;align=left;verticalAlign=middle;spacingTop=-1;spacingLeft=3;spacingRight=3;rotatable=0;labelPosition=right;points=[];portConstraint=eastwest;strokeColor=inherit;rounded=1;" parent="4kTOv0ZhPjYTlCzsY4zz-216" vertex="1">
          <mxGeometry y="40" width="170" height="8" as="geometry" />
        </mxCell>
        <mxCell id="4kTOv0ZhPjYTlCzsY4zz-226" value="# u_bloom: sampler2D" style="text;strokeColor=#C73500;fillColor=#fa6800;align=left;verticalAlign=middle;spacingLeft=2;spacingRight=2;overflow=hidden;rotatable=0;points=[[0,0.5],[1,0.5]];portConstraint=eastwest;whiteSpace=wrap;html=1;rounded=1;fontSize=10;fontFamily=Courier New;spacing=0;fontColor=#000000;" parent="4kTOv0ZhPjYTlCzsY4zz-216" vertex="1">
          <mxGeometry y="48" width="170" height="20" as="geometry" />
        </mxCell>
        <mxCell id="4kTOv0ZhPjYTlCzsY4zz-218" value="&amp;gt; out_color: vec4" style="text;strokeColor=none;fillColor=none;align=left;verticalAlign=middle;spacingLeft=2;spacingRight=2;overflow=hidden;rotatable=0;points=[[0,0.5],[1,0.5]];portConstraint=eastwest;whiteSpace=wrap;html=1;rounded=1;fontSize=10;fontFamily=Courier New;spacing=0;" parent="4kTOv0ZhPjYTlCzsY4zz-216" vertex="1">
          <mxGeometry y="68" width="170" height="20" as="geometry" />
        </mxCell>
        <mxCell id="4kTOv0ZhPjYTlCzsY4zz-221" style="edgeStyle=entityRelationEdgeStyle;orthogonalLoop=1;jettySize=auto;html=1;exitX=1;exitY=0.5;exitDx=0;exitDy=0;entryX=0;entryY=0.5;entryDx=0;entryDy=0;" parent="4kTOv0ZhPjYTlCzsY4zz-182" source="4kTOv0ZhPjYTlCzsY4zz-210" target="4kTOv0ZhPjYTlCzsY4zz-220" edge="1">
          <mxGeometry relative="1" as="geometry" />
        </mxCell>
        <mxCell id="4kTOv0ZhPjYTlCzsY4zz-211" style="edgeStyle=orthogonalEdgeStyle;orthogonalLoop=1;jettySize=auto;html=1;exitX=1;exitY=0.25;exitDx=0;exitDy=0;entryX=0;entryY=0.5;entryDx=0;entryDy=0;" parent="1" source="4kTOv0ZhPjYTlCzsY4zz-203" target="4kTOv0ZhPjYTlCzsY4zz-206" edge="1">
          <mxGeometry relative="1" as="geometry" />
        </mxCell>
        <mxCell id="4kTOv0ZhPjYTlCzsY4zz-212" style="edgeStyle=orthogonalEdgeStyle;orthogonalLoop=1;jettySize=auto;html=1;exitX=1;exitY=0.75;exitDx=0;exitDy=0;entryX=0;entryY=0.5;entryDx=0;entryDy=0;" parent="1" source="4kTOv0ZhPjYTlCzsY4zz-203" target="4kTOv0ZhPjYTlCzsY4zz-207" edge="1">
          <mxGeometry relative="1" as="geometry" />
        </mxCell>
        <mxCell id="4kTOv0ZhPjYTlCzsY4zz-203" value="quad" style="rounded=0;whiteSpace=wrap;html=1;" parent="1" vertex="1">
          <mxGeometry x="840" y="759" width="40" height="41" as="geometry" />
        </mxCell>
        <mxCell id="4kTOv0ZhPjYTlCzsY4zz-214" style="edgeStyle=orthogonalEdgeStyle;orthogonalLoop=1;jettySize=auto;html=1;exitX=1;exitY=0.25;exitDx=0;exitDy=0;entryX=0;entryY=0.5;entryDx=0;entryDy=0;" parent="1" source="4kTOv0ZhPjYTlCzsY4zz-213" target="4kTOv0ZhPjYTlCzsY4zz-48" edge="1">
          <mxGeometry relative="1" as="geometry" />
        </mxCell>
        <mxCell id="4kTOv0ZhPjYTlCzsY4zz-215" style="edgeStyle=orthogonalEdgeStyle;orthogonalLoop=1;jettySize=auto;html=1;exitX=1;exitY=0.75;exitDx=0;exitDy=0;entryX=0;entryY=0.5;entryDx=0;entryDy=0;" parent="1" source="4kTOv0ZhPjYTlCzsY4zz-213" target="4kTOv0ZhPjYTlCzsY4zz-50" edge="1">
          <mxGeometry relative="1" as="geometry" />
        </mxCell>
        <mxCell id="4kTOv0ZhPjYTlCzsY4zz-213" value="quad" style="rounded=0;whiteSpace=wrap;html=1;" parent="1" vertex="1">
          <mxGeometry x="1160" y="279" width="40" height="41" as="geometry" />
        </mxCell>
        <mxCell id="4kTOv0ZhPjYTlCzsY4zz-222" value="pass0" style="rounded=1;whiteSpace=wrap;html=1;" parent="1" vertex="1">
          <mxGeometry x="940" y="850" width="410" height="20" as="geometry" />
        </mxCell>
        <mxCell id="4kTOv0ZhPjYTlCzsY4zz-223" value="pass1" style="rounded=1;whiteSpace=wrap;html=1;" parent="1" vertex="1">
          <mxGeometry x="940" y="870" width="410" height="20" as="geometry" />
        </mxCell>
        <mxCell id="4kTOv0ZhPjYTlCzsY4zz-224" value="pass..." style="rounded=1;whiteSpace=wrap;html=1;" parent="1" vertex="1">
          <mxGeometry x="940" y="890" width="410" height="20" as="geometry" />
        </mxCell>
        <mxCell id="4kTOv0ZhPjYTlCzsY4zz-225" value="passN" style="rounded=1;whiteSpace=wrap;html=1;" parent="1" vertex="1">
          <mxGeometry x="940" y="910" width="410" height="20" as="geometry" />
        </mxCell>
        <mxCell id="4kTOv0ZhPjYTlCzsY4zz-227" style="edgeStyle=orthogonalEdgeStyle;orthogonalLoop=1;jettySize=auto;html=1;exitX=0;exitY=0.5;exitDx=0;exitDy=0;entryX=0;entryY=0.5;entryDx=0;entryDy=0;fillColor=#f0a30a;strokeColor=#BD7000;" parent="1" source="4kTOv0ZhPjYTlCzsY4zz-174" target="4kTOv0ZhPjYTlCzsY4zz-222" edge="1">
          <mxGeometry relative="1" as="geometry">
            <Array as="points">
              <mxPoint x="820" y="650" />
              <mxPoint x="820" y="860" />
            </Array>
          </mxGeometry>
        </mxCell>
        <mxCell id="4kTOv0ZhPjYTlCzsY4zz-237" value="&lt;span style=&quot;font-weight: 400;&quot;&gt;[5] blit screen&lt;/span&gt;" style="swimlane;whiteSpace=wrap;html=1;" parent="1" vertex="1">
          <mxGeometry x="1630" y="690" width="340" height="190" as="geometry" />
        </mxCell>
        <mxCell id="4kTOv0ZhPjYTlCzsY4zz-238" value="vertex" style="swimlane;fontStyle=1;align=center;verticalAlign=middle;childLayout=stackLayout;horizontal=1;startSize=20;horizontalStack=0;resizeParent=1;resizeParentMax=0;resizeLast=0;collapsible=1;marginBottom=0;whiteSpace=wrap;html=1;rounded=1;fontFamily=Courier New;" parent="4kTOv0ZhPjYTlCzsY4zz-237" vertex="1">
          <mxGeometry y="40" width="140" height="88" as="geometry" />
        </mxCell>
        <mxCell id="4kTOv0ZhPjYTlCzsY4zz-239" value="&amp;gt; a_position: vec3" style="text;strokeColor=none;fillColor=none;align=left;verticalAlign=middle;spacingLeft=2;spacingRight=2;overflow=hidden;rotatable=0;points=[[0,0.5],[1,0.5]];portConstraint=eastwest;whiteSpace=wrap;html=1;rounded=1;fontSize=10;fontFamily=Courier New;spacing=0;" parent="4kTOv0ZhPjYTlCzsY4zz-238" vertex="1">
          <mxGeometry y="20" width="140" height="20" as="geometry" />
        </mxCell>
        <mxCell id="4kTOv0ZhPjYTlCzsY4zz-240" value="&amp;gt; a_uv: vec2" style="text;strokeColor=none;fillColor=none;align=left;verticalAlign=middle;spacingLeft=2;spacingRight=2;overflow=hidden;rotatable=0;points=[[0,0.5],[1,0.5]];portConstraint=eastwest;whiteSpace=wrap;html=1;rounded=1;fontSize=10;fontFamily=Courier New;spacing=0;" parent="4kTOv0ZhPjYTlCzsY4zz-238" vertex="1">
          <mxGeometry y="40" width="140" height="20" as="geometry" />
        </mxCell>
        <mxCell id="4kTOv0ZhPjYTlCzsY4zz-241" value="" style="line;strokeWidth=1;fillColor=none;align=left;verticalAlign=middle;spacingTop=-1;spacingLeft=3;spacingRight=3;rotatable=0;labelPosition=right;points=[];portConstraint=eastwest;strokeColor=inherit;rounded=1;" parent="4kTOv0ZhPjYTlCzsY4zz-238" vertex="1">
          <mxGeometry y="60" width="140" height="8" as="geometry" />
        </mxCell>
        <mxCell id="4kTOv0ZhPjYTlCzsY4zz-242" value="&amp;lt; f_quad_uv: vec3" style="text;strokeColor=none;fillColor=none;align=left;verticalAlign=middle;spacingLeft=2;spacingRight=2;overflow=hidden;rotatable=0;points=[[0,0.5],[1,0.5]];portConstraint=eastwest;whiteSpace=wrap;html=1;rounded=1;fontSize=10;fontFamily=Courier New;spacing=0;" parent="4kTOv0ZhPjYTlCzsY4zz-238" vertex="1">
          <mxGeometry y="68" width="140" height="20" as="geometry" />
        </mxCell>
        <mxCell id="4kTOv0ZhPjYTlCzsY4zz-243" value="fragment" style="swimlane;fontStyle=1;align=center;verticalAlign=middle;childLayout=stackLayout;horizontal=1;startSize=20;horizontalStack=0;resizeParent=1;resizeParentMax=0;resizeLast=0;collapsible=1;marginBottom=0;whiteSpace=wrap;html=1;rounded=1;fontFamily=Courier New;" parent="4kTOv0ZhPjYTlCzsY4zz-237" vertex="1">
          <mxGeometry x="200" y="89" width="140" height="68" as="geometry" />
        </mxCell>
        <mxCell id="4kTOv0ZhPjYTlCzsY4zz-244" value="&amp;gt; f_quad_uv: vec3" style="text;strokeColor=none;fillColor=none;align=left;verticalAlign=middle;spacingLeft=2;spacingRight=2;overflow=hidden;rotatable=0;points=[[0,0.5],[1,0.5]];portConstraint=eastwest;whiteSpace=wrap;html=1;rounded=1;fontSize=10;fontFamily=Courier New;spacing=0;" parent="4kTOv0ZhPjYTlCzsY4zz-243" vertex="1">
          <mxGeometry y="20" width="140" height="20" as="geometry" />
        </mxCell>
        <mxCell id="4kTOv0ZhPjYTlCzsY4zz-245" value="" style="line;strokeWidth=1;fillColor=none;align=left;verticalAlign=middle;spacingTop=-1;spacingLeft=3;spacingRight=3;rotatable=0;labelPosition=right;points=[];portConstraint=eastwest;strokeColor=inherit;rounded=1;" parent="4kTOv0ZhPjYTlCzsY4zz-243" vertex="1">
          <mxGeometry y="40" width="140" height="8" as="geometry" />
        </mxCell>
        <mxCell id="4kTOv0ZhPjYTlCzsY4zz-246" value="# u_screen: sampler2D" style="text;strokeColor=#C73500;fillColor=#fa6800;align=left;verticalAlign=middle;spacingLeft=2;spacingRight=2;overflow=hidden;rotatable=0;points=[[0,0.5],[1,0.5]];portConstraint=eastwest;whiteSpace=wrap;html=1;rounded=1;fontSize=10;fontFamily=Courier New;spacing=0;fontColor=#000000;" parent="4kTOv0ZhPjYTlCzsY4zz-243" vertex="1">
          <mxGeometry y="48" width="140" height="20" as="geometry" />
        </mxCell>
        <mxCell id="4kTOv0ZhPjYTlCzsY4zz-248" style="edgeStyle=entityRelationEdgeStyle;orthogonalLoop=1;jettySize=auto;html=1;exitX=1;exitY=0.5;exitDx=0;exitDy=0;entryX=0;entryY=0.5;entryDx=0;entryDy=0;" parent="4kTOv0ZhPjYTlCzsY4zz-237" source="4kTOv0ZhPjYTlCzsY4zz-242" target="4kTOv0ZhPjYTlCzsY4zz-244" edge="1">
          <mxGeometry relative="1" as="geometry" />
        </mxCell>
        <mxCell id="4kTOv0ZhPjYTlCzsY4zz-249" value="textures" style="swimlane;whiteSpace=wrap;html=1;dashed=1;container=0;rounded=1;fontFamily=Courier New;startSize=20;fillColor=none;" parent="1" vertex="1">
          <mxGeometry x="1400" y="820" width="165" height="60" as="geometry" />
        </mxCell>
        <mxCell id="4kTOv0ZhPjYTlCzsY4zz-250" value="bloom" style="shape=process;whiteSpace=wrap;html=1;backgroundOutline=1;fontFamily=Courier New;fontSize=10;fillColor=#fa6800;strokeColor=#C73500;fontColor=#000000;" parent="4kTOv0ZhPjYTlCzsY4zz-249" vertex="1">
          <mxGeometry x="7.5" y="30" width="150" height="20" as="geometry" />
        </mxCell>
        <mxCell id="4kTOv0ZhPjYTlCzsY4zz-251" value="bloom framebuffer" style="swimlane;fontStyle=1;align=center;verticalAlign=middle;childLayout=stackLayout;horizontal=1;startSize=20;horizontalStack=0;resizeParent=1;resizeParentMax=0;resizeLast=0;collapsible=1;marginBottom=0;whiteSpace=wrap;html=1;rounded=1;fontFamily=Courier New;" parent="1" vertex="1">
          <mxGeometry x="1407.5" y="770" width="150" height="40" as="geometry" />
        </mxCell>
        <mxCell id="4kTOv0ZhPjYTlCzsY4zz-252" value="+ color_attachment_0" style="text;strokeColor=none;fillColor=none;align=left;verticalAlign=middle;spacingLeft=2;spacingRight=2;overflow=hidden;rotatable=0;points=[[0,0.5],[1,0.5]];portConstraint=eastwest;whiteSpace=wrap;html=1;rounded=1;fontSize=10;fontFamily=Courier New;spacing=0;" parent="4kTOv0ZhPjYTlCzsY4zz-251" vertex="1">
          <mxGeometry y="20" width="150" height="20" as="geometry" />
        </mxCell>
        <mxCell id="4kTOv0ZhPjYTlCzsY4zz-253" style="edgeStyle=orthogonalEdgeStyle;orthogonalLoop=1;jettySize=auto;html=1;exitX=0;exitY=0.5;exitDx=0;exitDy=0;entryX=1;entryY=0.5;entryDx=0;entryDy=0;fillColor=#fa6800;strokeColor=#C73500;" parent="1" source="4kTOv0ZhPjYTlCzsY4zz-250" target="4kTOv0ZhPjYTlCzsY4zz-223" edge="1">
          <mxGeometry relative="1" as="geometry" />
        </mxCell>
        <mxCell id="4kTOv0ZhPjYTlCzsY4zz-254" style="edgeStyle=orthogonalEdgeStyle;orthogonalLoop=1;jettySize=auto;html=1;exitX=0;exitY=0.5;exitDx=0;exitDy=0;entryX=1;entryY=0.5;entryDx=0;entryDy=0;fillColor=#fa6800;strokeColor=#C73500;" parent="1" source="4kTOv0ZhPjYTlCzsY4zz-250" target="4kTOv0ZhPjYTlCzsY4zz-224" edge="1">
          <mxGeometry relative="1" as="geometry" />
        </mxCell>
        <mxCell id="4kTOv0ZhPjYTlCzsY4zz-255" style="edgeStyle=orthogonalEdgeStyle;orthogonalLoop=1;jettySize=auto;html=1;exitX=0;exitY=0.5;exitDx=0;exitDy=0;entryX=1;entryY=0.5;entryDx=0;entryDy=0;fillColor=#fa6800;strokeColor=#C73500;" parent="1" source="4kTOv0ZhPjYTlCzsY4zz-250" target="4kTOv0ZhPjYTlCzsY4zz-225" edge="1">
          <mxGeometry relative="1" as="geometry" />
        </mxCell>
        <mxCell id="4kTOv0ZhPjYTlCzsY4zz-256" style="edgeStyle=orthogonalEdgeStyle;orthogonalLoop=1;jettySize=auto;html=1;exitX=1;exitY=0.5;exitDx=0;exitDy=0;entryX=1;entryY=0.25;entryDx=0;entryDy=0;startArrow=classic;startFill=1;dashed=1;fillColor=#e3c800;strokeColor=#B09500;" parent="1" source="4kTOv0ZhPjYTlCzsY4zz-252" target="4kTOv0ZhPjYTlCzsY4zz-250" edge="1">
          <mxGeometry relative="1" as="geometry" />
        </mxCell>
        <mxCell id="4kTOv0ZhPjYTlCzsY4zz-257" style="edgeStyle=orthogonalEdgeStyle;orthogonalLoop=1;jettySize=auto;html=1;exitX=1;exitY=0.5;exitDx=0;exitDy=0;entryX=0;entryY=0.5;entryDx=0;entryDy=0;fillColor=#fa6800;strokeColor=#C73500;" parent="1" source="4kTOv0ZhPjYTlCzsY4zz-226" target="4kTOv0ZhPjYTlCzsY4zz-252" edge="1">
          <mxGeometry relative="1" as="geometry" />
        </mxCell>
        <mxCell id="4kTOv0ZhPjYTlCzsY4zz-258" style="edgeStyle=entityRelationEdgeStyle;orthogonalLoop=1;jettySize=auto;html=1;exitX=1;exitY=0.75;exitDx=0;exitDy=0;entryX=0;entryY=0.5;entryDx=0;entryDy=0;fillColor=#fa6800;strokeColor=#C73500;" parent="1" source="4kTOv0ZhPjYTlCzsY4zz-250" target="4kTOv0ZhPjYTlCzsY4zz-246" edge="1">
          <mxGeometry relative="1" as="geometry" />
        </mxCell>
      </root>
    </mxGraphModel>
  </diagram>
</mxfile>
